<mxfile host="app.diagrams.net" agent="Mozilla/5.0 (Windows NT 10.0; Win64; x64; rv:133.0) Gecko/20100101 Firefox/133.0" version="26.0.1">
  <diagram name="Page-1" id="V2BiXUg4ptN1ZNNVxWzB">
    <mxGraphModel dx="2261" dy="754" grid="1" gridSize="10" guides="1" tooltips="1" connect="1" arrows="1" fold="1" page="1" pageScale="1" pageWidth="827" pageHeight="1169" math="0" shadow="0">
      <root>
        <mxCell id="0" />
        <mxCell id="1" parent="0" />
        <mxCell id="4hNE5wpbfr4ElaiZk2uJ-1" value="Root" style="rounded=0;whiteSpace=wrap;html=1;" vertex="1" parent="1">
          <mxGeometry x="320" y="80" width="120" height="60" as="geometry" />
        </mxCell>
        <mxCell id="4hNE5wpbfr4ElaiZk2uJ-5" style="edgeStyle=orthogonalEdgeStyle;rounded=0;orthogonalLoop=1;jettySize=auto;html=1;exitX=0.5;exitY=1;exitDx=0;exitDy=0;entryX=0.5;entryY=0;entryDx=0;entryDy=0;fontFamily=Helvetica;fontSize=12;fontColor=default;" edge="1" parent="1" source="4hNE5wpbfr4ElaiZk2uJ-3" target="4hNE5wpbfr4ElaiZk2uJ-4">
          <mxGeometry relative="1" as="geometry" />
        </mxCell>
        <mxCell id="4hNE5wpbfr4ElaiZk2uJ-3" value="" style="rhombus;whiteSpace=wrap;html=1;rounded=0;strokeColor=default;align=center;verticalAlign=middle;fontFamily=Helvetica;fontSize=12;fontColor=default;fillColor=default;" vertex="1" parent="1">
          <mxGeometry x="370" y="130" width="20" height="20" as="geometry" />
        </mxCell>
        <mxCell id="4hNE5wpbfr4ElaiZk2uJ-4" value="Preloads" style="rounded=0;whiteSpace=wrap;html=1;" vertex="1" parent="1">
          <mxGeometry x="320" y="170" width="120" height="60" as="geometry" />
        </mxCell>
        <mxCell id="4hNE5wpbfr4ElaiZk2uJ-8" style="edgeStyle=orthogonalEdgeStyle;rounded=0;orthogonalLoop=1;jettySize=auto;html=1;exitX=1;exitY=0.5;exitDx=0;exitDy=0;entryX=0;entryY=0.5;entryDx=0;entryDy=0;fontFamily=Helvetica;fontSize=12;fontColor=default;" edge="1" parent="1" source="4hNE5wpbfr4ElaiZk2uJ-6" target="4hNE5wpbfr4ElaiZk2uJ-7">
          <mxGeometry relative="1" as="geometry" />
        </mxCell>
        <mxCell id="4hNE5wpbfr4ElaiZk2uJ-10" style="edgeStyle=orthogonalEdgeStyle;rounded=0;orthogonalLoop=1;jettySize=auto;html=1;exitX=1;exitY=0.5;exitDx=0;exitDy=0;entryX=0;entryY=0.5;entryDx=0;entryDy=0;fontFamily=Helvetica;fontSize=12;fontColor=default;" edge="1" parent="1" source="4hNE5wpbfr4ElaiZk2uJ-6" target="4hNE5wpbfr4ElaiZk2uJ-9">
          <mxGeometry relative="1" as="geometry" />
        </mxCell>
        <mxCell id="4hNE5wpbfr4ElaiZk2uJ-6" value="" style="rhombus;whiteSpace=wrap;html=1;rounded=0;strokeColor=default;align=center;verticalAlign=middle;fontFamily=Helvetica;fontSize=12;fontColor=default;fillColor=default;" vertex="1" parent="1">
          <mxGeometry x="429" y="190" width="20" height="20" as="geometry" />
        </mxCell>
        <mxCell id="4hNE5wpbfr4ElaiZk2uJ-7" value="Global" style="shape=process;whiteSpace=wrap;html=1;backgroundOutline=1;rounded=0;strokeColor=default;align=center;verticalAlign=middle;fontFamily=Helvetica;fontSize=12;fontColor=default;fillColor=default;" vertex="1" parent="1">
          <mxGeometry x="500" y="170" width="100" height="20" as="geometry" />
        </mxCell>
        <mxCell id="4hNE5wpbfr4ElaiZk2uJ-9" value="Inventory" style="shape=process;whiteSpace=wrap;html=1;backgroundOutline=1;rounded=0;strokeColor=default;align=center;verticalAlign=middle;fontFamily=Helvetica;fontSize=12;fontColor=default;fillColor=default;" vertex="1" parent="1">
          <mxGeometry x="500" y="210" width="100" height="20" as="geometry" />
        </mxCell>
        <mxCell id="4hNE5wpbfr4ElaiZk2uJ-11" value="Manager" style="rounded=0;whiteSpace=wrap;html=1;strokeColor=default;align=center;verticalAlign=middle;fontFamily=Helvetica;fontSize=12;fontColor=default;fillColor=default;" vertex="1" parent="1">
          <mxGeometry x="320" y="260" width="120" height="60" as="geometry" />
        </mxCell>
        <mxCell id="4hNE5wpbfr4ElaiZk2uJ-13" style="edgeStyle=orthogonalEdgeStyle;rounded=0;orthogonalLoop=1;jettySize=auto;html=1;exitX=0.5;exitY=1;exitDx=0;exitDy=0;fontFamily=Helvetica;fontSize=12;fontColor=default;" edge="1" parent="1" source="4hNE5wpbfr4ElaiZk2uJ-12" target="4hNE5wpbfr4ElaiZk2uJ-11">
          <mxGeometry relative="1" as="geometry" />
        </mxCell>
        <mxCell id="4hNE5wpbfr4ElaiZk2uJ-12" value="" style="rhombus;whiteSpace=wrap;html=1;rounded=0;strokeColor=default;align=center;verticalAlign=middle;fontFamily=Helvetica;fontSize=12;fontColor=default;fillColor=default;" vertex="1" parent="1">
          <mxGeometry x="370" y="220" width="20" height="20" as="geometry" />
        </mxCell>
        <mxCell id="4hNE5wpbfr4ElaiZk2uJ-17" style="edgeStyle=orthogonalEdgeStyle;rounded=0;orthogonalLoop=1;jettySize=auto;html=1;exitX=0.5;exitY=1;exitDx=0;exitDy=0;entryX=0.5;entryY=0;entryDx=0;entryDy=0;fontFamily=Helvetica;fontSize=12;fontColor=default;" edge="1" parent="1" source="4hNE5wpbfr4ElaiZk2uJ-14" target="4hNE5wpbfr4ElaiZk2uJ-16">
          <mxGeometry relative="1" as="geometry" />
        </mxCell>
        <mxCell id="4hNE5wpbfr4ElaiZk2uJ-29" style="edgeStyle=orthogonalEdgeStyle;rounded=0;orthogonalLoop=1;jettySize=auto;html=1;exitX=0.5;exitY=1;exitDx=0;exitDy=0;entryX=0.5;entryY=0;entryDx=0;entryDy=0;fontFamily=Helvetica;fontSize=12;fontColor=default;" edge="1" parent="1" source="4hNE5wpbfr4ElaiZk2uJ-14" target="4hNE5wpbfr4ElaiZk2uJ-28">
          <mxGeometry relative="1" as="geometry" />
        </mxCell>
        <mxCell id="4hNE5wpbfr4ElaiZk2uJ-14" value="" style="rhombus;whiteSpace=wrap;html=1;rounded=0;strokeColor=default;align=center;verticalAlign=middle;fontFamily=Helvetica;fontSize=12;fontColor=default;fillColor=default;" vertex="1" parent="1">
          <mxGeometry x="370" y="310" width="20" height="20" as="geometry" />
        </mxCell>
        <mxCell id="4hNE5wpbfr4ElaiZk2uJ-22" style="edgeStyle=orthogonalEdgeStyle;rounded=0;orthogonalLoop=1;jettySize=auto;html=1;exitX=0.5;exitY=1;exitDx=0;exitDy=0;entryX=0.5;entryY=0;entryDx=0;entryDy=0;fontFamily=Helvetica;fontSize=12;fontColor=default;" edge="1" parent="1" source="4hNE5wpbfr4ElaiZk2uJ-16" target="4hNE5wpbfr4ElaiZk2uJ-19">
          <mxGeometry relative="1" as="geometry" />
        </mxCell>
        <mxCell id="4hNE5wpbfr4ElaiZk2uJ-26" style="edgeStyle=orthogonalEdgeStyle;rounded=0;orthogonalLoop=1;jettySize=auto;html=1;exitX=0.75;exitY=1;exitDx=0;exitDy=0;entryX=0.25;entryY=0;entryDx=0;entryDy=0;fontFamily=Helvetica;fontSize=12;fontColor=default;" edge="1" parent="1" source="4hNE5wpbfr4ElaiZk2uJ-16" target="4hNE5wpbfr4ElaiZk2uJ-20">
          <mxGeometry relative="1" as="geometry" />
        </mxCell>
        <mxCell id="4hNE5wpbfr4ElaiZk2uJ-27" style="edgeStyle=orthogonalEdgeStyle;rounded=0;orthogonalLoop=1;jettySize=auto;html=1;exitX=0.25;exitY=1;exitDx=0;exitDy=0;entryX=0.75;entryY=0;entryDx=0;entryDy=0;fontFamily=Helvetica;fontSize=12;fontColor=default;" edge="1" parent="1" source="4hNE5wpbfr4ElaiZk2uJ-16" target="4hNE5wpbfr4ElaiZk2uJ-18">
          <mxGeometry relative="1" as="geometry" />
        </mxCell>
        <mxCell id="4hNE5wpbfr4ElaiZk2uJ-16" value="Login Forms" style="rounded=1;whiteSpace=wrap;html=1;strokeColor=default;align=center;verticalAlign=middle;fontFamily=Helvetica;fontSize=12;fontColor=default;fillColor=default;" vertex="1" parent="1">
          <mxGeometry x="110" y="370" width="120" height="60" as="geometry" />
        </mxCell>
        <mxCell id="4hNE5wpbfr4ElaiZk2uJ-18" value="Login Form" style="rounded=0;whiteSpace=wrap;html=1;strokeColor=default;align=center;verticalAlign=middle;fontFamily=Helvetica;fontSize=12;fontColor=default;fillColor=default;" vertex="1" parent="1">
          <mxGeometry x="-20" y="480" width="120" height="60" as="geometry" />
        </mxCell>
        <mxCell id="4hNE5wpbfr4ElaiZk2uJ-19" value="&lt;div&gt;Create Account&lt;/div&gt;&lt;div&gt;Form&lt;br&gt;&lt;/div&gt;" style="rounded=0;whiteSpace=wrap;html=1;strokeColor=default;align=center;verticalAlign=middle;fontFamily=Helvetica;fontSize=12;fontColor=default;fillColor=default;" vertex="1" parent="1">
          <mxGeometry x="110" y="480" width="120" height="60" as="geometry" />
        </mxCell>
        <mxCell id="4hNE5wpbfr4ElaiZk2uJ-20" value="Reset Password&lt;br&gt;Form" style="rounded=0;whiteSpace=wrap;html=1;strokeColor=default;align=center;verticalAlign=middle;fontFamily=Helvetica;fontSize=12;fontColor=default;fillColor=default;" vertex="1" parent="1">
          <mxGeometry x="240" y="480" width="120" height="60" as="geometry" />
        </mxCell>
        <mxCell id="4hNE5wpbfr4ElaiZk2uJ-28" value="Worlds" style="rounded=1;whiteSpace=wrap;html=1;strokeColor=default;align=center;verticalAlign=middle;fontFamily=Helvetica;fontSize=12;fontColor=default;fillColor=default;" vertex="1" parent="1">
          <mxGeometry x="470" y="370" width="120" height="60" as="geometry" />
        </mxCell>
        <mxCell id="4hNE5wpbfr4ElaiZk2uJ-34" style="edgeStyle=orthogonalEdgeStyle;rounded=0;orthogonalLoop=1;jettySize=auto;html=1;exitX=0.5;exitY=1;exitDx=0;exitDy=0;entryX=0.5;entryY=0;entryDx=0;entryDy=0;fontFamily=Helvetica;fontSize=12;fontColor=default;" edge="1" parent="1" source="4hNE5wpbfr4ElaiZk2uJ-31" target="4hNE5wpbfr4ElaiZk2uJ-32">
          <mxGeometry relative="1" as="geometry" />
        </mxCell>
        <mxCell id="4hNE5wpbfr4ElaiZk2uJ-37" style="edgeStyle=orthogonalEdgeStyle;rounded=0;orthogonalLoop=1;jettySize=auto;html=1;exitX=0.5;exitY=1;exitDx=0;exitDy=0;entryX=0.5;entryY=0;entryDx=0;entryDy=0;fontFamily=Helvetica;fontSize=12;fontColor=default;" edge="1" parent="1" source="4hNE5wpbfr4ElaiZk2uJ-31" target="4hNE5wpbfr4ElaiZk2uJ-36">
          <mxGeometry relative="1" as="geometry" />
        </mxCell>
        <mxCell id="4hNE5wpbfr4ElaiZk2uJ-40" style="edgeStyle=orthogonalEdgeStyle;rounded=0;orthogonalLoop=1;jettySize=auto;html=1;exitX=0.5;exitY=1;exitDx=0;exitDy=0;entryX=0.25;entryY=0;entryDx=0;entryDy=0;fontFamily=Helvetica;fontSize=12;fontColor=default;" edge="1" parent="1" source="4hNE5wpbfr4ElaiZk2uJ-31" target="4hNE5wpbfr4ElaiZk2uJ-39">
          <mxGeometry relative="1" as="geometry" />
        </mxCell>
        <mxCell id="4hNE5wpbfr4ElaiZk2uJ-31" value="" style="rhombus;whiteSpace=wrap;html=1;rounded=0;strokeColor=default;align=center;verticalAlign=middle;fontFamily=Helvetica;fontSize=12;fontColor=default;fillColor=default;" vertex="1" parent="1">
          <mxGeometry x="519" y="420" width="20" height="20" as="geometry" />
        </mxCell>
        <mxCell id="4hNE5wpbfr4ElaiZk2uJ-32" value="Player" style="rounded=0;whiteSpace=wrap;html=1;strokeColor=default;align=center;verticalAlign=middle;fontFamily=Helvetica;fontSize=12;fontColor=default;fillColor=default;" vertex="1" parent="1">
          <mxGeometry x="370" y="480" width="120" height="60" as="geometry" />
        </mxCell>
        <mxCell id="4hNE5wpbfr4ElaiZk2uJ-33" value="Player" style="shape=process;whiteSpace=wrap;html=1;backgroundOutline=1;rounded=0;strokeColor=default;align=center;verticalAlign=middle;fontFamily=Helvetica;fontSize=12;fontColor=default;fillColor=default;" vertex="1" parent="1">
          <mxGeometry x="374" y="570" width="100" height="20" as="geometry" />
        </mxCell>
        <mxCell id="4hNE5wpbfr4ElaiZk2uJ-36" value="Enemies" style="rounded=1;whiteSpace=wrap;html=1;strokeColor=default;align=center;verticalAlign=middle;fontFamily=Helvetica;fontSize=12;fontColor=default;fillColor=default;" vertex="1" parent="1">
          <mxGeometry x="630" y="480" width="120" height="60" as="geometry" />
        </mxCell>
        <mxCell id="4hNE5wpbfr4ElaiZk2uJ-43" style="edgeStyle=orthogonalEdgeStyle;rounded=0;orthogonalLoop=1;jettySize=auto;html=1;exitX=0.5;exitY=1;exitDx=0;exitDy=0;entryX=0.5;entryY=0;entryDx=0;entryDy=0;fontFamily=Helvetica;fontSize=12;fontColor=default;" edge="1" parent="1" source="4hNE5wpbfr4ElaiZk2uJ-39" target="4hNE5wpbfr4ElaiZk2uJ-42">
          <mxGeometry relative="1" as="geometry" />
        </mxCell>
        <mxCell id="4hNE5wpbfr4ElaiZk2uJ-39" value="Items" style="rounded=1;whiteSpace=wrap;html=1;strokeColor=default;align=center;verticalAlign=middle;fontFamily=Helvetica;fontSize=12;fontColor=default;fillColor=default;" vertex="1" parent="1">
          <mxGeometry x="500" y="480" width="120" height="60" as="geometry" />
        </mxCell>
        <mxCell id="4hNE5wpbfr4ElaiZk2uJ-42" value="Weapons" style="rounded=1;whiteSpace=wrap;html=1;strokeColor=default;align=center;verticalAlign=middle;fontFamily=Helvetica;fontSize=12;fontColor=default;fillColor=default;" vertex="1" parent="1">
          <mxGeometry x="500" y="560" width="120" height="60" as="geometry" />
        </mxCell>
        <mxCell id="4hNE5wpbfr4ElaiZk2uJ-45" value="attack()" style="shape=process;whiteSpace=wrap;html=1;backgroundOutline=1;rounded=0;strokeColor=default;align=center;verticalAlign=middle;fontFamily=Helvetica;fontSize=12;fontColor=default;fillColor=default;" vertex="1" parent="1">
          <mxGeometry x="510" y="650" width="100" height="20" as="geometry" />
        </mxCell>
        <mxCell id="4hNE5wpbfr4ElaiZk2uJ-48" style="edgeStyle=orthogonalEdgeStyle;rounded=0;orthogonalLoop=1;jettySize=auto;html=1;exitX=0.5;exitY=1;exitDx=0;exitDy=0;fontFamily=Helvetica;fontSize=12;fontColor=default;" edge="1" parent="1" source="4hNE5wpbfr4ElaiZk2uJ-47" target="4hNE5wpbfr4ElaiZk2uJ-33">
          <mxGeometry relative="1" as="geometry" />
        </mxCell>
        <mxCell id="4hNE5wpbfr4ElaiZk2uJ-47" value="" style="rhombus;whiteSpace=wrap;html=1;rounded=0;strokeColor=default;align=center;verticalAlign=middle;fontFamily=Helvetica;fontSize=12;fontColor=default;fillColor=default;" vertex="1" parent="1">
          <mxGeometry x="414" y="530" width="20" height="20" as="geometry" />
        </mxCell>
        <mxCell id="4hNE5wpbfr4ElaiZk2uJ-50" style="edgeStyle=orthogonalEdgeStyle;rounded=0;orthogonalLoop=1;jettySize=auto;html=1;exitX=0.5;exitY=1;exitDx=0;exitDy=0;entryX=0.5;entryY=0;entryDx=0;entryDy=0;fontFamily=Helvetica;fontSize=12;fontColor=default;" edge="1" parent="1" source="4hNE5wpbfr4ElaiZk2uJ-49" target="4hNE5wpbfr4ElaiZk2uJ-45">
          <mxGeometry relative="1" as="geometry" />
        </mxCell>
        <mxCell id="4hNE5wpbfr4ElaiZk2uJ-49" value="" style="rhombus;whiteSpace=wrap;html=1;rounded=0;strokeColor=default;align=center;verticalAlign=middle;fontFamily=Helvetica;fontSize=12;fontColor=default;fillColor=default;" vertex="1" parent="1">
          <mxGeometry x="550" y="610" width="20" height="20" as="geometry" />
        </mxCell>
        <mxCell id="4hNE5wpbfr4ElaiZk2uJ-51" value="_process()" style="shape=process;whiteSpace=wrap;html=1;backgroundOutline=1;rounded=0;strokeColor=default;align=center;verticalAlign=middle;fontFamily=Helvetica;fontSize=12;fontColor=default;fillColor=default;" vertex="1" parent="1">
          <mxGeometry x="640" y="570" width="100" height="20" as="geometry" />
        </mxCell>
        <mxCell id="4hNE5wpbfr4ElaiZk2uJ-53" style="edgeStyle=orthogonalEdgeStyle;rounded=0;orthogonalLoop=1;jettySize=auto;html=1;exitX=0.5;exitY=1;exitDx=0;exitDy=0;entryX=0.5;entryY=0;entryDx=0;entryDy=0;fontFamily=Helvetica;fontSize=12;fontColor=default;" edge="1" parent="1" source="4hNE5wpbfr4ElaiZk2uJ-52" target="4hNE5wpbfr4ElaiZk2uJ-51">
          <mxGeometry relative="1" as="geometry" />
        </mxCell>
        <mxCell id="4hNE5wpbfr4ElaiZk2uJ-52" value="" style="rhombus;whiteSpace=wrap;html=1;rounded=0;strokeColor=default;align=center;verticalAlign=middle;fontFamily=Helvetica;fontSize=12;fontColor=default;fillColor=default;" vertex="1" parent="1">
          <mxGeometry x="680" y="530" width="20" height="20" as="geometry" />
        </mxCell>
      </root>
    </mxGraphModel>
  </diagram>
</mxfile>
